<svg fill="rgb(200,200,200)" viewBox="0 0 980.04 978.4"><path d="M987.5,633c1.4,8.4,1.1,18.6-1.1,30.5a185,185,0,0,1-10.5,36.3,157.6,157.6,0,0,1-17.9,33q-10.5,14.7-23.1,21c-8.4,4.2-15.8,6.3-22.1,6.3s-13.3-1.4-21-4.2a229.17,229.17,0,0,0-26.3-5.8,122.81,122.81,0,0,0-32.1-1.1,157.76,157.76,0,0,0-32.6,6.8,64.26,64.26,0,0,0-27.9,17.9Q747.7,800,743.5,833.6a118.14,118.14,0,0,0,9.5,64.1c7,14,6,28-3.2,42-4.2,5.6-10.9,11.4-20,17.3a213,213,0,0,1-30,16.3,186,186,0,0,1-34.2,11.6q-17.85,4.2-31.5,4.2c-6.3,0-12.3-2.5-17.9-7.4s-9.5-10.2-11.6-15.8h-1.1c-7.7-21.7-20.8-40.5-39.4-56.2s-40.1-23.6-64.6-23.6c-23.8,0-45.4,7.9-64.6,23.6s-32.8,34.2-40.5,55.2c-3.5,8.4-8.8,14.5-15.8,18.4a46.62,46.62,0,0,1-23.1,5.8c-9.8,0-20.8-1.8-33.1-5.3a317.85,317.85,0,0,1-36.8-13.1,177.4,177.4,0,0,1-33.1-18.4c-9.8-7-17.2-14-22.1-21a32.53,32.53,0,0,1-5.8-17.3c-.4-6.7,2.3-15.9,7.9-27.9q11.55-24.15,8.9-55.2t-26.8-57.3a68.66,68.66,0,0,0-35.7-20.5,147,147,0,0,0-39.9-3.7,176.72,176.72,0,0,0-45.2,8.4,42.78,42.78,0,0,1-29.4-2.1c-7.7-2.8-14.9-9.3-21.6-19.4a222.33,222.33,0,0,1-17.9-33.6A229,229,0,0,1,13.2,665c-2.8-13-3.5-23.6-2.1-32.1q3.15-23.1,21-29.4Q63.6,590.9,88.9,562t25.2-64.6q0-36.75-25.2-64.1t-56.8-40c-6.3-2.1-11.6-7.2-15.8-15.2A53,53,0,0,1,10,353.4a127,127,0,0,1,4.2-30.5,215.43,215.43,0,0,1,11-32.6A177.25,177.25,0,0,1,41,261.4c6-8.8,12.4-15.2,19.4-19.4,5.6-3.5,11-4.9,16.3-4.2A93.87,93.87,0,0,1,94,242a127.66,127.66,0,0,0,65.7,7.9c22.8-3.2,42.9-13.1,60.4-30a75,75,0,0,0,18.4-31,172.18,172.18,0,0,0,7.4-36.3,177.09,177.09,0,0,0,0-32.6c-1.1-9.8-1.9-16.8-2.6-21a120.7,120.7,0,0,1-3.7-14.7,22.44,22.44,0,0,1,1.6-14.7c4.2-9.8,11.7-18.4,22.6-25.8A175.66,175.66,0,0,1,299,25.4a224.3,224.3,0,0,1,36.8-11c11.9-2.5,21.4-3.7,28.4-3.7,9.1,0,16.3,3,21.5,8.9a53.24,53.24,0,0,1,11,18.4c7.7,18.9,20.3,35.6,37.8,49.9s38.2,21.5,62,21.5q36.75,0,65.2-20.5t39.9-52c2.8-5.6,7.2-11.4,13.1-17.3s12.1-8.9,18.4-8.9a137.53,137.53,0,0,1,32.1,4.2,208.87,208.87,0,0,1,34.2,11.6,134.76,134.76,0,0,1,31,18.9A100.11,100.11,0,0,1,753,70.6,24.12,24.12,0,0,1,756.2,89c-1.4,6.7-2.8,11.4-4.2,14.2a111.52,111.52,0,0,0-8.4,64.1q5.25,33.6,30.5,58.9t62,27.8c24.5,1.8,47.3-2.3,68.3-12.1,5.6-3.5,12.4-4.9,20.5-4.2a32,32,0,0,1,20.5,9.5q15.75,14.7,27.9,44.7a252.06,252.06,0,0,1,16.3,60.4c1.4,11.9-.5,21.2-5.8,27.9s-10.7,11-16.3,13.1q-32.55,11.55-55.7,40.5t-23.1,65.7c0,23.8,6.5,44.7,19.4,62.5a106.78,106.78,0,0,0,51,38.4,98.24,98.24,0,0,1,12.6,8.4A47,47,0,0,1,987.5,633ZM498.7,727.6A227.15,227.15,0,0,0,661,660.3a236.33,236.33,0,0,0,48.9-73,229.21,229.21,0,0,0,0-177.6A227.81,227.81,0,0,0,588,288.3a226.08,226.08,0,0,0-89.3-17.9,222.6,222.6,0,0,0-88.8,17.9A229.13,229.13,0,0,0,288.5,409.7a229.21,229.21,0,0,0,0,177.6,235.16,235.16,0,0,0,48.9,73,226,226,0,0,0,72.5,49.4,222.6,222.6,0,0,0,88.8,17.9Z" transform="translate(-10 -10.7)"/></svg>