<svg class="pause" fill="rgb(200,200,200)" viewBox="0 0 899.9 980.01"><path d="M88.34,11.58C74.36,15,61.73,25.37,54.26,39.34l-4.21,7.85V952.85l4.21,7.85A59.48,59.48,0,0,0,78.58,985l7.85,4.21,131.92.57c148.2.57,144.75.77,160.45-12.83,5-4.59,10.53-11.87,13.21-17.81l4.6-10.15V51L392,40.86A59.13,59.13,0,0,0,378.8,23.24C363.29,9.64,366.55,9.84,222.56,10,151.91,10.24,91.59,10.81,88.34,11.58Z" transform="translate(-50.05 -9.99)"/><path d="M638.63,12.73c-11.3,3.64-24.89,15.7-30.64,27.19l-4.6,9.19V950.93l4.6,9.19c2.49,5,8.42,12.45,13.21,16.66,15.7,13.79,12.06,13.59,160.45,13l131.92-.57,7.85-4.21a59.48,59.48,0,0,0,24.32-24.32l4.21-7.85V47.19l-4.21-7.85A59.54,59.54,0,0,0,921.42,15l-7.85-4.21L780.5,10.43C669.84,10,645.9,10.62,638.63,12.73Z" transform="translate(-50.05 -9.99)"/></svg>